<svg xmlns="http://www.w3.org/2000/svg" xmlns:xlink="http://www.w3.org/1999/xlink" width="1080" zoomAndPan="magnify" viewBox="0 0 810 404.99999" height="540" preserveAspectRatio="xMidYMid meet" version="1.0"><defs><g/></defs><g fill="#ff3131" fill-opacity="1"><g transform="translate(93.786251, 305.366918)"><g><path d="M 16.65625 -143.640625 L 16.65625 -175.03125 L 50.453125 -175.03125 L 50.453125 -143.640625 Z M 16.65625 0 L 16.65625 -128.4375 L 50.453125 -128.4375 L 50.453125 0 Z M 16.65625 0 "/></g></g></g><g fill="#ffffff" fill-opacity="1"><g transform="translate(148.840943, 305.366918)"><g><path d="M 91.25 -146.546875 C 77.894531 -146.546875 67.273438 -141.3125 59.390625 -130.84375 C 51.503906 -120.382812 47.5625 -105.5 47.5625 -86.1875 C 47.5625 -68 51.300781 -53.550781 58.78125 -42.84375 C 66.269531 -32.144531 76.851562 -26.796875 90.53125 -26.796875 C 100.675781 -26.796875 109.046875 -29.570312 115.640625 -35.125 C 122.242188 -40.675781 126.671875 -48.765625 128.921875 -59.390625 L 165.125 -59.390625 C 161.101562 -38.785156 152.535156 -22.96875 139.421875 -11.9375 C 126.304688 -0.914062 109.769531 4.59375 89.8125 4.59375 C 73.71875 4.59375 59.710938 0.929688 47.796875 -6.390625 C 35.890625 -13.710938 26.71875 -24.210938 20.28125 -37.890625 C 13.84375 -51.578125 10.625 -67.753906 10.625 -86.421875 C 10.625 -105.097656 13.960938 -121.316406 20.640625 -135.078125 C 27.316406 -148.835938 36.691406 -159.414062 48.765625 -166.8125 C 60.835938 -174.21875 74.757812 -177.921875 90.53125 -177.921875 C 104.207031 -177.921875 116.519531 -175.265625 127.46875 -169.953125 C 138.414062 -164.648438 147.144531 -157.367188 153.65625 -148.109375 C 160.175781 -138.859375 164 -128.359375 165.125 -116.609375 L 128.921875 -116.609375 C 124.253906 -136.566406 111.695312 -146.546875 91.25 -146.546875 Z M 91.25 -146.546875 "/></g></g></g><g fill="#ffffff" fill-opacity="1"><g transform="translate(311.077974, 305.366918)"><g><path d="M 139.546875 -64.21875 C 139.546875 -50.375 136.804688 -38.378906 131.328125 -28.234375 C 125.859375 -18.097656 118.132812 -10.296875 108.15625 -4.828125 C 98.175781 0.640625 86.75 3.375 73.875 3.375 C 61 3.375 49.570312 0.640625 39.59375 -4.828125 C 29.613281 -10.296875 21.882812 -18.097656 16.40625 -28.234375 C 10.9375 -38.378906 8.203125 -50.375 8.203125 -64.21875 C 8.203125 -78.0625 10.976562 -90.09375 16.53125 -100.3125 C 22.082031 -110.53125 29.847656 -118.332031 39.828125 -123.71875 C 49.804688 -129.113281 61.15625 -131.8125 73.875 -131.8125 C 86.75 -131.8125 98.175781 -129.078125 108.15625 -123.609375 C 118.132812 -118.140625 125.859375 -110.332031 131.328125 -100.1875 C 136.804688 -90.050781 139.546875 -78.0625 139.546875 -64.21875 Z M 73.875 -25.109375 C 84.175781 -25.109375 91.898438 -28.523438 97.046875 -35.359375 C 102.203125 -42.203125 104.78125 -51.820312 104.78125 -64.21875 C 104.78125 -76.613281 102.160156 -86.226562 96.921875 -93.0625 C 91.691406 -99.90625 83.929688 -103.328125 73.640625 -103.328125 C 63.816406 -103.328125 56.25 -99.945312 50.9375 -93.1875 C 45.625 -86.425781 42.96875 -76.769531 42.96875 -64.21875 C 42.96875 -51.5 45.582031 -41.800781 50.8125 -35.125 C 56.050781 -28.445312 63.738281 -25.109375 73.875 -25.109375 Z M 73.875 -25.109375 "/></g></g></g><g fill="#ffffff" fill-opacity="1"><g transform="translate(446.516856, 305.366918)"><g><path d="M 99.953125 0 L 99.953125 -16.171875 L 99.46875 -16.171875 C 95.445312 -9.410156 90.175781 -4.460938 83.65625 -1.328125 C 77.132812 1.804688 70.007812 3.375 62.28125 3.375 C 51.175781 3.375 41.5625 0.476562 33.4375 -5.3125 C 25.3125 -11.101562 19.070312 -19.1875 14.71875 -29.5625 C 10.375 -39.945312 8.203125 -51.984375 8.203125 -65.671875 C 8.203125 -79.023438 10.457031 -90.691406 14.96875 -100.671875 C 19.476562 -110.648438 25.796875 -118.332031 33.921875 -123.71875 C 42.046875 -129.113281 51.257812 -131.8125 61.5625 -131.8125 C 69.769531 -131.8125 77.007812 -130.082031 83.28125 -126.625 C 89.5625 -123.164062 94.710938 -118.21875 98.734375 -111.78125 L 99.21875 -111.78125 L 99.21875 -173.34375 L 133.03125 -173.34375 L 133.03125 0 Z M 100.671875 -61.328125 C 100.671875 -74.523438 98.21875 -84.703125 93.3125 -91.859375 C 88.40625 -99.023438 81.117188 -102.609375 71.453125 -102.609375 C 62.441406 -102.609375 55.441406 -99.1875 50.453125 -92.34375 C 45.460938 -85.5 42.96875 -75.882812 42.96875 -63.5 C 42.96875 -52.070312 45.460938 -42.695312 50.453125 -35.375 C 55.441406 -28.050781 62.203125 -24.390625 70.734375 -24.390625 C 79.910156 -24.390625 87.191406 -27.726562 92.578125 -34.40625 C 97.972656 -41.082031 100.671875 -50.054688 100.671875 -61.328125 Z M 100.671875 -61.328125 "/></g></g></g><g fill="#ffffff" fill-opacity="1"><g transform="translate(581.955724, 305.366918)"><g><path d="M 69.53125 -23.65625 C 74.519531 -23.65625 79.066406 -24.863281 83.171875 -27.28125 C 87.273438 -29.695312 89.96875 -33.15625 91.25 -37.65625 L 126.015625 -37.65625 C 122.316406 -24.625 115.476562 -14.523438 105.5 -7.359375 C 95.519531 -0.203125 83.53125 3.375 69.53125 3.375 C 48.28125 3.375 32.300781 -2.5 21.59375 -14.25 C 10.894531 -26 5.546875 -43.457031 5.546875 -66.625 C 5.546875 -79.34375 7.921875 -90.609375 12.671875 -100.421875 C 17.421875 -110.242188 24.378906 -117.929688 33.546875 -123.484375 C 42.722656 -129.035156 53.832031 -131.8125 66.875 -131.8125 C 85.21875 -131.8125 99.898438 -125.9375 110.921875 -114.1875 C 121.953125 -102.4375 127.46875 -84.65625 127.46875 -60.84375 L 127.46875 -55.046875 L 39.359375 -55.046875 C 40.484375 -34.117188 50.539062 -23.65625 69.53125 -23.65625 Z M 66.390625 -104.046875 C 50.941406 -104.046875 42.25 -95.035156 40.3125 -77.015625 L 92.703125 -77.015625 C 91.898438 -85.378906 89.164062 -91.972656 84.5 -96.796875 C 79.832031 -101.628906 73.796875 -104.046875 66.390625 -104.046875 Z M 66.390625 -104.046875 "/></g></g></g><g fill="#ffffff" fill-opacity="1"><g transform="translate(722.934634, 306.617017)"><g><path d="M 5.75 64.21875 L 26.359375 64.21875 C 48 64.21875 68.609375 46.640625 68.609375 18.921875 L 68.609375 -50.703125 C 68.609375 -63.203125 74.359375 -74.015625 86.1875 -74.015625 L 86.1875 -90.921875 C 74.359375 -90.921875 68.609375 -101.734375 68.609375 -114.234375 L 68.609375 -183.53125 C 68.609375 -211.578125 48 -229.15625 26.359375 -229.15625 L 5.75 -229.15625 L 5.75 -210.5625 L 26.359375 -210.5625 C 38.53125 -210.5625 48.671875 -199.40625 48.671875 -183.53125 L 48.671875 -112.203125 C 48.671875 -98.015625 53.0625 -87.203125 64.21875 -82.46875 C 53.0625 -77.734375 48.671875 -66.921875 48.671875 -52.71875 L 48.671875 18.59375 C 48.671875 34.140625 38.53125 45.625 26.359375 45.625 L 5.75 45.625 Z M 5.75 64.21875 "/></g></g></g><g fill="#ffffff" fill-opacity="1"><g transform="translate(-0.821604, 306.617017)"><g><path d="M 82.125 64.21875 L 82.125 45.625 L 61.515625 45.625 C 49.34375 45.625 39.203125 34.140625 39.203125 18.59375 L 39.203125 -52.71875 C 39.203125 -66.921875 34.8125 -77.734375 23.65625 -82.46875 C 34.8125 -87.203125 39.203125 -98.015625 39.203125 -112.203125 L 39.203125 -183.53125 C 39.203125 -199.40625 49.34375 -210.5625 61.515625 -210.5625 L 82.125 -210.5625 L 82.125 -229.15625 L 61.515625 -229.15625 C 40.21875 -229.15625 19.265625 -211.578125 19.265625 -183.53125 L 19.265625 -114.234375 C 19.265625 -101.734375 13.515625 -90.921875 1.6875 -90.921875 L 1.6875 -74.015625 C 13.515625 -74.015625 19.265625 -63.203125 19.265625 -50.703125 L 19.265625 18.921875 C 19.265625 46.640625 40.21875 64.21875 61.515625 64.21875 Z M 82.125 64.21875 "/></g></g></g></svg>